<svg width="580" height="400" xmlns="http://www.w3.org/2000/svg">
 <!-- Created with Method Draw - http://github.com/duopixel/Method-Draw/ -->
 <g>
  <title>background</title>
  <rect fill="#fff" id="canvas_background" height="402" width="582" y="-1" x="-1"/>
  <g display="none" overflow="visible" y="0" x="0" height="100%" width="100%" id="canvasGrid">
   <rect fill="url(#gridpattern)" stroke-width="0" y="0" x="0" height="100%" width="100%"/>
  </g>
 </g>
 <g>
  <title>Layer 1</title>
  <path stroke="#000" id="svg_5" d="m226.349974,268.313756c9.130097,-0.097988 -8.695145,-0.454745 -11.856982,-0.651386c-26.419897,-0.547259 -48.346107,-22.985054 -45.492506,-45.252197c0.577836,-22.28201 25.701987,-41.855682 51.851868,-39.613463c6.806817,-2.469924 16.46941,5.68126 20.695612,1.787951c10.855148,-16.357093 21.372644,-32.885063 32.66519,-49.024567c9.618946,-1.172772 21.078528,-2.079282 30.435772,0.14363c4.325991,5.820884 -3.539284,7.405593 -8.447258,6.506979c-5.477929,0 -10.955859,0 -16.433797,0c-3.965643,6.180187 -8.034993,12.311123 -12.087092,18.450071c23.015896,0 46.031817,0 69.047713,0c0.512527,-2.091344 6.326238,-6.597366 1.172103,-6.107565c-9.363982,-1.008136 -3.506447,-10.252594 3.427915,-7.622726c9.733709,0.305525 19.811496,-0.81963 29.253088,0.847238c5.04357,8.64643 -9.539602,6.791491 -15.790889,6.883137c-4.627141,-1.290059 -5.586047,2.661178 -7.41809,5.364845c-7.427952,6.499372 -2.811012,13.349354 2.181293,19.685189c1.83118,2.882303 3.135704,6.882609 7.591712,4.189441c9.086873,-1.705633 18.993256,-1.767495 28.035196,0.226874c18.894019,4.794924 34.043142,19.758772 35.311452,36.709561c1.144464,10.411828 -1.461267,21.143962 -9.048238,29.543366c-8.799767,10.766481 -23.080672,16.661816 -38.104408,17.857712m-11.778898,0.105096c-13.696686,-3.002381 -26.324697,-9.987309 -33.645886,-20.532586c-4.791121,-5.27095 -5.413975,-13.43194 -7.960542,-18.719326c-6.716442,-0.075065 -13.432893,-0.150138 -20.149352,-0.225196c-13.603374,-18.693214 -25.593581,-38.243248 -38.715656,-57.197054c-2.557851,6.488764 -17.09918,15.31678 -9.070129,21.289797c20.150241,14.442526 22.833648,42.652729 5.59883,59.657882c-7.898314,7.563121 -18.854969,12.775022 -30.118013,15.721168m0.865103,-10.28407c21.73471,-4.043006 35.623633,-25.449996 28.105847,-43.303319c-2.323314,-5.814702 -8.715902,-15.103146 -14.362035,-15.198335c-6.018595,8.876391 -11.433026,18.070601 -18.029262,26.649559c-14.484722,2.176373 -1.214133,-12.888889 1.850743,-18.008147c3.28597,-6.245975 15.21864,-16.349862 0.186599,-16.200259c-10.552999,-0.897045 -21.767953,-0.02956 -30.304917,5.953675c-18.320813,10.356229 -21.788363,34.043163 -7.914127,48.322008c9.392468,10.402363 25.612247,14.824903 40.467144,11.784827l0.000008,-0.000007zm152.069475,-0.002574c18.55133,-3.723235 31.901111,-20.010173 29.499858,-36.174675c-1.269986,-17.964081 -22.243063,-32.492447 -43.093962,-30.077927c-15.624505,-1.263145 -0.665857,10.98958 1.56748,16.946256c2.124686,6.324909 13.829107,14.093355 7.294566,20.261465c-14.656278,0.524474 -29.671905,-0.368305 -44.287939,0.894059c2.62515,16.555411 20.966804,30.250293 40.758754,28.983431c2.777532,-0.01935 5.568448,-0.220069 8.261252,-0.83261l-0.000008,0zm-59.874003,-36.998405c1.765303,-12.953405 10.360957,-24.736243 22.896951,-32.108877c0.740639,-3.177466 -6.850015,-17.812424 -9.629418,-7.609284c-8.579036,13.320162 -17.203429,26.622471 -25.519587,40.063392c3.983919,0.082311 8.449866,0.676528 12.252054,-0.345231zm44.781445,-0.642448c-4.945391,-7.941506 -10.000592,-15.835353 -15.169609,-23.67224c-10.369211,4.670876 -17.190833,14.555692 -18.803365,24.421954c11.321861,-0.206157 22.833648,0.505333 34.002441,-0.515218l-0.029425,-0.234502l0,0l-0.000042,0.000007zm-48.501613,-28.64491c4.877407,-7.689534 9.84738,-15.338552 14.57414,-23.096376c-20.553388,-0.393585 -41.153412,-0.4798 -61.699858,0.083186c10.553558,15.493506 20.088123,31.587158 31.627413,46.53611c5.579648,-7.331171 10.318487,-15.771532 15.498305,-23.522912l0,-0.000007z" stroke-width="1.5" fill="#529D94"/>
  <text style="cursor: move;" xml:space="preserve" text-anchor="start" font-family="Oswald, sans-serif" font-size="50" id="svg_6" y="319.5" x="142.5" stroke-opacity="null" stroke-width="0" stroke="#000" fill="#33666C">B i k e  S h a r e</text>
 </g>
</svg>